<?xml version="1.0" encoding="iso-8859-1"?>
<!-- Generator: Adobe Illustrator 25.4.1, SVG Export Plug-In . SVG Version: 6.00 Build 0)  -->
<svg version="1.1" id="Layer_1" xmlns="http://www.w3.org/2000/svg" xmlns:xlink="http://www.w3.org/1999/xlink" x="0px" y="0px"
	 viewBox="0 0 48 48" style="enable-background:new 0 0 48 48;" xml:space="preserve">
<linearGradient id="SVGID_1_" gradientUnits="userSpaceOnUse" x1="24" y1="-3.8049" x2="24" y2="56.2436">
	<stop  offset="0.143" style="stop-color:#073042"/>
	<stop  offset="1" style="stop-color:#073042"/>
</linearGradient>
<path style="fill:url(#SVGID_1_);" d="M42,37c0,2.762-2.238,5-5,5H11c-2.762,0-5-2.238-5-5V11c0-2.762,2.238-5,5-5h26
	c2.762,0,5,2.238,5,5V37z"/>
<linearGradient id="SVGID_00000075843696375126895380000001902902611245550268_" gradientUnits="userSpaceOnUse" x1="16.5" y1="27.25" x2="35" y2="27.25">
	<stop  offset="0" style="stop-color:#7DFFCE"/>
	<stop  offset="1" style="stop-color:#50C08D"/>
</linearGradient>
<polygon style="fill:url(#SVGID_00000075843696375126895380000001902902611245550268_);" points="35,24 22.5,36.5 16.5,30.5 29,18 
	"/>
<path style="fill:#FFFFFF;" d="M27.5,16.5L21,23l-0.072-0.359c-0.116-0.581-0.402-1.114-0.82-1.533L15.5,16.5l6-6L27.5,16.5z"/>
</svg>