<?xml version="1.0" encoding="utf-8"?>
<!-- Generator: Adobe Illustrator 27.1.1, SVG Export Plug-In . SVG Version: 6.00 Build 0)  -->
<svg version="1.1" id="Layer_1" xmlns="http://www.w3.org/2000/svg" xmlns:xlink="http://www.w3.org/1999/xlink" x="0px" y="0px"
	 viewBox="0 0 645.9 649.8" style="enable-background:new 0 0 645.9 649.8;" xml:space="preserve">
<style type="text/css">
	.st0{fill:#3078BB;}
	.st1{fill:#44B449;}
	.st2{fill:#F8A21A;}
</style>
<g>
	<path class="st0" d="M41.5,43.4h164.8v164.4c-5.3,1.1-147.7,1.3-164.8,0.4V43.4z"/>
	<path class="st0" d="M239.8,43.4h164.8v164.4c-5.3,1.1-148.4,1.3-164.8,0.4L239.8,43.4L239.8,43.4z"/>
	<path class="st1" d="M604.6,208.5H439.8V44.1c5.3-1.1,145.7-1.6,164.8-0.4V208.5z"/>
	<path class="st0" d="M41.2,406.9V242h164.4c0.9,5.3,1.3,150,0.4,164.8H41.2z"/>
	<path class="st0" d="M239.8,241.8h164.8v164.4c-5.3,1.1-143.5,1.6-164.8,0.4L239.8,241.8L239.8,241.8z"/>
	<path class="st0" d="M439.6,406.9V242H604c1.1,5.3,1.6,143.3,0.4,164.8H439.6z"/>
	<path class="st2" d="M206.3,441.7v164.8H41.9c-1.1-5.3-1.6-142-0.4-164.8H206.3z"/>
	<path class="st0" d="M404.7,606.8H239.8V442.4c5.3-1.1,146.6-1.6,164.8-0.4V606.8z"/>
	<path class="st0" d="M439.6,606.6V441.7H604c1.1,5.3,1.3,146.8,0.4,164.8H439.6z"/>
</g>
</svg>
