<?xml version="1.0" encoding="utf-8"?>
<!-- Generator: Adobe Illustrator 27.1.1, SVG Export Plug-In . SVG Version: 6.00 Build 0)  -->
<svg version="1.1" id="Uploaded_to_svgrepo.com" xmlns="http://www.w3.org/2000/svg" xmlns:xlink="http://www.w3.org/1999/xlink"
	 x="0px" y="0px" viewBox="0 0 5970.3 5970.3" style="enable-background:new 0 0 5970.3 5970.3;" xml:space="preserve">
<style type="text/css">
	.st0{fill:#6035B7;}
</style>
<g>
	<path class="st0" d="M3713.5,4730c0,130.7-0.1,251.3,0.1,371.9c0,11.5,1.8,23.1,3.5,43c88,0,174.4-0.1,260.8,0
		c189.1,0.2,270.2,81.8,270.4,271.9c0.1,87.2,0.3,174.3,0,261.5c-0.6,172-86.9,258.1-260.6,258.4c-398.1,0.5-796.3,0.2-1194.4,0.2
		c-267.4,0-534.8,0.2-802.2-0.1c-183.9-0.2-267.1-84.4-267.3-269.5c-0.1-87.2-0.2-174.3,0-261.5c0.4-176.3,85.4-260.4,263.5-260.8
		c87-0.2,174,0,266.1,0c0-138.7,0-273.7,0-414.9c-25,0-48.2,0-71.5,0c-554.6,0-1109.2,0.6-1663.8-0.3
		c-248.1-0.4-437-148.9-474.1-380.2c-14.3-89.1-9.2-181.7-9.2-272.7c0-879.6,0.5-1759.1,1.5-2638.7c0.2-223.4,115.6-391.5,311-456.5
		c22.4-7.5,45.7-16.7,68.8-17.2c54.7-1.1,96.7-8.6,111.7-75.5c4.5-19.8,51.7-34.6,81.7-43c39.4-11,82-10.7,121.9-20.3
		c42.1-10.2,54.9-38.9,28.4-75.3c-21.9-30.1-47.6-57.9-74.1-84.1c-47.3-46.6-52.8-80.6-15.2-135.9
		c87.1-127.9,197.9-231.4,329.6-312.3c53.6-32.9,92-24.8,135.6,23.7c23.7,26.3,47.6,53.7,76.2,73.9c48.3,34.1,70.2,27.6,86.8-28
		c12.2-41,16.1-85,19-128c4.6-67,29.2-100.5,93.6-109.7c143.9-20.7,287.8-25.4,431,7.1c79.7,18.1,96.3,44.3,90.6,123.9
		c-2.9,40.4,1.8,83,12.3,122.1c10.1,37.6,41,48.1,73.7,22c27.6-22.1,53-47.3,77.5-72.9c46.8-48.9,91.2-54.9,147-16.2
		c122.2,84.8,220.5,192.2,299.1,318c34.9,55.9,28.7,90.4-17.9,136.7c-30.6,30.4-60.2,62.5-86.4,96.7c-24.5,31.9-11.4,58.3,25.4,66
		c38.3,8,79.6,3.5,116.8,14.1c33,9.4,74.9,24.9,89.8,50.9c18.6,32.3,36.2,39.6,68.4,39.4c182.2-0.9,364.5-0.4,546.7-0.4
		c715,0,1430.1,0.5,2145.1-0.5c117.8-0.2,228.7,18.7,324.3,92.9c113,87.6,177,203,179.5,346.2c3.6,204,1.7,408.1,1.7,612.1
		c0.1,746.8,0.4,1493.6-0.2,2240.4c-0.2,233.9-129.2,410.8-340.1,463.7c-53,13.3-109.6,17.2-164.5,17.3
		c-546.7,1.2-1093.4,0.7-1640,0.7C3767.6,4730,3744.2,4730,3713.5,4730z M481.8,1145.8c-160,4-263.1,121.2-263.1,298.3
		c-0.3,826.1-0.1,1652.1-0.1,2478.2c0,18.9,0,37.8,0,54.7c1850.1,0,3690.8,0,5534.9,0c0-22.6,0-40.2,0-57.9
		c0-822.1,0.1-1644.2-0.1-2466.3c0-204.3-107.7-311.8-311.6-311.9c-891.3-0.1-1782.6,0-2673.9,0c-21,0-42.1,0-58.4,0
		c-11.5,90.2-19.3,172.7-33.1,254.2c-12.6,74.2-46.7,93.2-121.8,86.9c-38.5-3.2-79.4-1.5-116.5,8.4c-44.2,11.8-60.5,47-33.3,87.5
		c20.6,30.6,47.7,57.7,75,82.8c52.4,48.2,59.3,92.3,18,151.1c-85.4,121.6-192.6,220.2-318.8,298.2c-53.8,33.2-94.5,25.8-135.7-21.9
		c-20.6-23.8-40.2-49.7-64.8-68.7c-56.8-43.8-95.6-29.6-110.9,39c-6,26.8-8.3,54.8-8.5,82.3c-0.7,84.5-15,109.2-95.2,135.2
		c-148.5,48.1-297.6,29.9-445.4-4.3c-45.1-10.4-58.7-47.6-57.2-92.2c1.4-41.3,5.1-83.9-2.6-123.9c-11.7-60.3-44.1-71-92.6-34.9
		c-22,16.4-41.2,37-59.7,57.5c-55.2,61.1-96.4,66.1-164.4,17c-115.3-83.4-210.3-186-285.7-306.7c-38.2-61.1-32.4-95.2,21-145
		c24.5-22.8,49.6-46.1,69.1-73c39.2-54,29.6-78.1-36.5-93.8c-32.5-7.8-66.4-10.2-99.9-13c-70.2-5.8-100.4-31.9-108.4-101.1
		C493.8,1291.8,488.6,1220.8,481.8,1145.8z M213.2,4169.7c6.8,66.5,5.6,126.7,20.3,182.7c32.7,125.1,138.3,191.2,293,191.2
		c1011.9-0.5,2023.8-1.8,3035.7-2c631.7-0.1,1263.4,1.9,1895.1,1.7c210.7-0.1,338.5-166.9,286.8-373.6
		C3905.6,4169.7,2066.5,4169.7,213.2,4169.7z M1513.5,224c-17.2,117.4-42.6,226.6-161.1,276.5c-122.8,51.7-216.5-13.9-311.1-89.9
		c-60.2,55-118.1,108-177.8,162.5c76.7,93.1,136.6,187.1,85.9,303.2c-51.2,117.4-163.8,137.6-280.8,149.1c0,83.3,0,163,0,241.2
		c300.6,57,355,198.4,178,465.9c52.2,57.1,106,115.9,160.7,175.6c18.9-15.1,29.4-23.8,40.2-32.1c171-132,330.1-77.4,385.3,131.9
		c9.1,34.6,10,84.4,32.8,99.3c28.9,18.9,76.4,9.4,115.9,11.7c11.8,0.7,23.8-1.3,35.6-0.5c51.5,3.3,77.7-10.6,89.4-71.1
		c42.1-216.9,230.4-283.3,407.1-149.2c14,10.7,27.9,21.5,49.8,38.4c59.2-54,118.1-107.7,178.6-162.8
		c-82.3-96.8-129.5-197.7-83.4-313c47.3-118.2,158.2-144.5,279.6-157c0-81.9,0-161.7,0-241.6c-242.8-19.3-382-219.9-168.7-463.5
		c-52.9-58.2-106.6-117.2-161.8-177.8c-94,76.9-187.9,136.7-303.9,85.5C1787,454.4,1766.6,342.2,1756,224
		C1673.6,224,1595.4,224,1513.5,224z M2979.7,5753c336.6,0,673.3-0.8,1009.9,0.8c56.6,0.3,78.6-20.5,77-76.8
		c-2.6-89-0.4-178.2-0.8-267.3c-0.3-71.7-10.6-82.2-82.6-82c-271.3,0.7-542.5,2.7-813.8,2.6c-392.1-0.2-784.1-1.9-1176.2-2.6
		c-70.8-0.1-86.8,16.3-87,87.3c-0.3,85.2-0.3,170.3,0,255.5c0.3,73.9,8.7,82.4,81.4,82.5C2318.3,5753,2649,5753,2979.7,5753z
		 M3527.5,5137.7c0-137.9,0-269.7,0-403.3c-362.7,0-721.8,0-1083.7,0c0,135.4,0,267.2,0,403.3
		C2805,5137.7,3164.1,5137.7,3527.5,5137.7z"/>
	<path class="st0" d="M4247.4,1436.8c316.9,0,633.7-0.4,950.6,0.1c226.2,0.4,352.2,126.8,352.4,354.2c0.4,534.8,0.3,1069.5,0,1604.3
		c-0.1,213.8-138.9,355.8-351.9,356.2c-635.7,1.1-1271.4,1-1907.1,0c-214.8-0.3-341.5-130.1-341.7-346.4
		c-0.3-540.7-0.3-1081.4,0-1622.1c0.1-219.5,126.4-345.7,347.1-346.1C3613.7,1436.4,3930.6,1436.8,4247.4,1436.8z M5364.5,2240.7
		c-22-1.1-35.6-2.4-49.2-2.4c-708.8-0.1-1417.5,0.3-2126.3-1c-44.4-0.1-57.2,12.7-57,57c1.6,366.3,0.7,732.6,1.1,1098.9
		c0.1,122.2,51.6,172.9,173.4,172.9c625.6,0.1,1251.2,0.1,1876.8,0c127.5,0,181.1-53,181.1-179.4c0.2-308.9,0.1-617.8,0.1-926.7
		C5364.5,2389,5364.5,2317.9,5364.5,2240.7z M5364.5,2052.8c0-85.1,0-164,0-243c-0.1-144.9-45.5-189.9-192.5-189.9
		c-615.5-0.1-1231-0.1-1846.5,0.2c-27.6,0-55.7,0.7-82.5,6.2c-52.9,10.8-97.1,44.6-100.6,96.4c-7.4,109.2-2.3,219.2-2.3,330
		C3880.7,2052.8,4618.4,2052.8,5364.5,2052.8z"/>
	<path class="st0" d="M1594.8,2959c247.5,0,494.9-2.2,742.4,0.8c160.6,1.9,281.9,77.8,350.4,223c69.1,146.3,52.8,289.7-46,419.1
		c-77.1,101-184.5,148.9-309.7,149.3c-492.9,1.5-985.9,3.5-1478.8-0.9c-218.7-1.9-374.6-155.9-391.9-368.6
		C445,3182.1,580.3,3005.6,781.7,2966c34.6-6.8,70.8-7,106.3-7.1c235.6-0.6,471.2-0.3,706.7-0.3
		C1594.8,2958.8,1594.8,2958.9,1594.8,2959z M1589.4,3566.3c241.6,0,483.2,0.3,724.8-0.1c125.7-0.2,227.5-93.3,229.6-208.7
		c2.2-114-98.3-214.4-224.4-214.9c-483.2-1.7-966.4-1.6-1449.7-0.1c-127,0.4-225.8,97.3-225.6,212.8
		c0.2,118.8,100.9,210.8,232.3,210.9C1114.1,3566.5,1351.8,3566.3,1589.4,3566.3z"/>
	<path class="st0" d="M2990.8,4268c45.6,0,91.2-2,136.6,0.5c52.6,3,84.3,31.1,87.1,86c2.9,55.4-24.9,93.4-82.1,95.7
		c-98.8,4-197.9,3.5-296.7-0.5c-54-2.2-79.4-39.4-78.4-93.1c1-51.2,31.7-85,85-87.9C2891.7,4266,2941.3,4268.1,2990.8,4268z"/>
	<path class="st0" d="M1593.9,1795.2c-342.5,0.3-618-276.3-617.3-619.6c0.7-338.7,277.7-615.3,616.6-615.7
		c339.9-0.5,620.6,281.3,618.6,621C2209.8,1520.4,1933.7,1794.9,1593.9,1795.2z M2025.5,1177c-0.6-241.9-192.5-432.1-434.8-430.8
		c-238.3,1.2-429.6,192.3-430.8,430.3c-1.2,238.7,194.6,435.5,433.3,435.5C1833.2,1612,2026.1,1417.9,2025.5,1177z"/>
	<path class="st0" d="M4711.4,2900.1c-67.1-72.7-126.4-138.4-187.4-202.5c-49.8-52.2-56.4-104-15.5-144.9
		c39.8-39.6,90.6-36.1,141.1,11.9c86,81.7,171.5,163.9,256.6,246.5c48.7,47.3,49.8,96.8,2.3,144.6
		c-83.5,84.2-167.8,167.7-252.7,250.6c-47.7,46.6-95.5,50-135.7,12.1c-42-39.6-41-92.8,6.5-140.4
		C4589.3,3015.4,4654.2,2955,4711.4,2900.1z"/>
	<path class="st0" d="M4424,2554.6c-17.1,66.2-37.1,142.6-56.8,219.1c-40.3,157-80,314.1-120.7,471
		c-16.9,65.1-71.1,103.5-125.3,91.2c-52.3-11.9-76.7-66.5-58.5-134.8c60.7-227.2,121.7-454.3,183.3-681.3
		c15.4-56.6,59.5-87.2,108.4-78.4C4399.3,2449.4,4428,2491.3,4424,2554.6z"/>
	<path class="st0" d="M3766.9,2887.3c54.4,52.3,107.9,103.5,161,155c17,16.5,34.8,32.7,49.4,51.2c31.6,39.9,28.3,89.2-6.3,123.4
		c-35.5,35.1-84.3,39.3-122.3,2.8c-94-90.6-186.5-182.8-276.6-277.1c-36.9-38.6-32.7-84.9,4.8-122.2
		c91.2-90.6,183.4-180.2,277.2-268.1c40.6-38.1,91.8-35,127.6,1.4c37.4,38,37.6,89.5-4.5,131.7
		C3911.7,2751.1,3843.4,2814.2,3766.9,2887.3z"/>
	<path class="st0" d="M3851.6,1935.5c-154.2,0-308.5,0.3-462.7-0.3c-21.5-0.1-43.7-1.3-64.3-6.8c-45.1-12.1-68.8-49.1-59.3-89.5
		c7.3-31,36.8-59.5,62.4-82.4c11.8-10.6,37.8-7.2,57.3-7.2c312.4-0.4,624.8-0.2,937.3-0.4c45.2,0,88.6,4.3,111,51.1
		c32.9,68.9-12,134.2-95.3,135C4175.9,1936.6,4013.8,1935.5,3851.6,1935.5z"/>
	<path class="st0" d="M4681,1934.4c-17.7,0-35.7,2-53.1-0.4c-52.2-7-81.3-37.6-83.2-90.6c-1.9-51.6,31.3-87.9,86.8-92.9
		c35.2-3.2,71-2.9,106.3-0.5c60.3,4.2,92.1,38.4,91.3,94.1c-0.9,55-33.7,86.8-94.9,91c-17.7,1.2-35.5,0.2-53.2,0.2
		C4681,1935,4681,1934.7,4681,1934.4z"/>
	<path class="st0" d="M5085.1,1936.6c-23.5-1.3-47.6,0.1-70.4-4.4c-49.7-9.9-73.5-43.2-72.3-93c1.1-47.3,25.4-79.8,72.7-86.3
		c38.6-5.3,78.5-5,117.6-3c60.6,3.3,92.9,37.3,92.8,92.4c-0.1,55.1-32.9,88-93.1,92.6c-15.6,1.2-31.4,0.2-47.2,0.2
		C5085.1,1935.6,5085.1,1936.1,5085.1,1936.6z"/>
	<path class="st0" d="M1394.6,3446.9c-130.4,0-260.9,0.4-391.3-0.1c-71.8-0.3-107.6-29.8-109.5-88c-2.1-62,32.7-95.8,107.7-96.2
		c262.9-1.2,525.7-1.1,788.6,0c72,0.3,105.9,32.1,106.3,91.4c0.4,61.6-35.6,92.5-110.4,92.8
		C1655.5,3447.3,1525,3446.9,1394.6,3446.9z"/>
</g>
</svg>
