<?xml version="1.0" encoding="UTF-8"?>
<svg id="Layer_1" data-name="Layer 1" xmlns="http://www.w3.org/2000/svg" viewBox="0 0 5873.57 5874.78">
  <defs>
    <style>
      .cls-1 {
        fill: #60489d;
      }
    </style>
  </defs>
  <path class="cls-1" d="m5873.57,596.53v1835.91c-61.83,169.64-185.16,231.09-361.44,222.11-171.57-8.73-343.93-1.9-515.94-1.9h-67.84c0,25.9,0,44.55,0,63.21,0,168.23,1.58,336.48-1.07,504.67-.7,43.99,14.23,60.23,55.18,75.38,419.04,154.99,700.11,444.71,834.64,872.01,25.53,81.09,37.99,166.29,56.47,249.6v263.91c-3.91,14.52-9.1,28.83-11.54,43.59-87.84,531.59-385.56,891.64-889.14,1078.65-93.39,34.68-194.72,47.95-292.39,71.1h-275.32c-10.33-3.81-20.39-9.81-31.03-11.12-537.08-66.31-994.7-476.3-1115.26-1003.99-22.74-99.51-32.17-202.06-48.16-305.95h-366.86v65.04c0,313.3.12,626.61-.23,939.91-.03,26.6-.76,53.64-5.44,79.71-22.77,126.76-107.05,196.54-222.62,236.39H217.95c-14.81-7.37-29.49-15.02-44.44-22.08C63.22,5800.63.83,5715.09.65,5591.88c-.94-632.95-.72-1265.9-.21-1898.85.11-135.63,89.79-246.82,223.05-274.35,49.42-10.21,100.95-10.14,155.29-15.11,0-24.78,0-47.44,0-70.1,0-1011.58-.1-2023.15.1-3034.73C378.92,119.57,497.95.29,676.36.15c346.04-.28,692.07-.08,1038.11-.08,973.11,0,1946.22-.1,2919.33.11,158.15.03,272.34,101.32,290.98,258,4.62,38.88,4.75,78.29,7.12,120.57,221.41,0,437.21-.41,653.01.16,126.11.33,223.41,67.21,271.15,183.83,4.79,11.7,11.63,22.56,17.51,33.8ZM1422.51,3602c-366.93,0-733.85-.04-1100.78.02-102.69.02-129.69,26.27-129.72,127.55-.14,609.77-.15,1219.55,0,1829.32.03,96.31,26.77,123.53,121.31,123.55,737.68.15,1475.35.14,2213.03.02,97.65-.02,124.54-27.61,124.55-126.69.06-607.86.06-1215.72,0-1823.59,0-103.51-27.38-130.16-133.36-130.18-365.01-.04-730.03-.02-1095.04-.02ZM4450.8,570.76c-366.9,0-733.8-.11-1100.7.07-101.49.05-127.46,26.73-127.47,129.61-.05,542.83-.04,1085.66,0,1628.49,0,107.5,27.04,134.4,136.49,134.5,236.96.23,473.92.91,710.86-.76,38.52-.27,62.45,11.57,84.92,43.11,66.48,93.32,136.25,184.3,205.45,275.66,58.56,77.3,123.84,78.4,182.23,2.18,68.52-89.45,137.04-179,202.18-270.89,25.77-36.35,53.46-50.78,98.76-50.32,235.02,2.37,470.08,1.31,705.13,1,105.75-.14,132.88-27.18,132.91-131.72.12-542.83.11-1085.66.02-1628.49-.02-109.67-23.4-132.39-135.8-132.41-364.99-.08-729.98-.03-1094.97-.03ZM1709.67,3408.94c27.05,0,47.82,0,68.59,0,254.23,0,508.46-.67,762.68.25,180.45.65,302.1,122.68,302.75,302.67.69,193.1.17,386.21.17,579.32,0,20.48,0,40.97,0,64.55h390.28c60.03-357.89,229.42-650.81,518.92-868.82,289.78-218.22,617.83-298.52,980.19-252.42v-381.59c-18.79,23.46-30.44,37.62-41.68,52.1-134.32,173.06-347.57,171.63-480.09-3.44-51.89-68.55-105.16-136.19-154.16-206.77-22.19-31.96-46.43-43.31-84.95-42.98-210.25,1.79-420.52,1.15-630.79.76-196.6-.37-311.76-116.65-311.83-314.55-.15-439.75-.05-879.49-.05-1319.24,0-22,0-44,0-64.05h-1320.02v2454.21Zm1701.7,1141.6c3.47,630.04,512.85,1135.26,1141.23,1131.92,630.37-3.35,1133.07-512.23,1128.68-1142.55-4.36-626.08-518.1-1134.57-1139.42-1127.76-628.73,6.89-1133.92,515.61-1130.49,1138.39Zm-1900.07-1143.84V953.55h-935.55v2453.16h935.55ZM4733.59,378.72c11.01-127.77,7.37-188.87-163.36-188.43-1278.5,3.32-2557.02,1.81-3835.53,1.81-19.11,0-38.23-.29-57.33.11-73.33,1.53-104.85,31.86-106.24,103.93-1,51.59-.25,103.22-.26,154.83-.01,100.59,0,201.18,0,301.9h2458.83c0-19.89,1.1-35.22-.17-50.36-15.19-180.6,119.88-329.92,326.03-326.2,435.58,7.88,871.41,2.4,1307.13,2.4h70.9Z"/>
  <path class="cls-1" d="m1515.47,5493.51h-190.96c0-28.65,0-54.95,0-81.25,0-151.01-.52-302.01.41-453.01.19-31.12-6.84-50.12-37.57-67.61-203.31-115.75-203.19-383.18.2-497.16,30.96-17.35,37.55-36.49,37.37-67.48-.91-156.73-.41-313.48-.41-470.22,0-20.59,0-41.18,0-65.23h188.03c.97,19.8,2.77,39.9,2.8,60.01.24,158.65.89,317.31-.5,475.95-.28,32.3,8.32,50.64,38.92,66.52,100.37,52.06,152.52,139.42,152.11,250.75-.4,109.15-52.95,194.76-150.38,246.24-32.68,17.27-41.09,36.51-40.77,70.91,1.62,175.53.75,351.09.75,531.58Zm-.93-851.12c-.23-49.82-40.49-89.97-91.25-91.01-54.6-1.11-94.64,38.23-94.1,92.47.5,50.94,39.87,91.79,89.72,93.09,49.79,1.3,95.86-44.26,95.63-94.56Z"/>
  <path class="cls-1" d="m566.01,3791.15h191.57v61.14c0,281.08.45,562.16-.54,843.24-.13,36.95,5.4,60.3,44.04,80.59,97.46,51.17,147.88,139,146.99,248.14-.87,106.59-50.58,192.52-146.14,242.93-37.24,19.65-47.3,41.71-45.05,79.9,2.78,47.26.67,94.81.67,145.48h-191.54c0-52.99-1.33-104.16.49-155.21,1.13-31.64-7.83-49.93-37.96-67.26-203.13-116.8-201.94-381.94,2.44-497.12,31.83-17.94,35.4-38.46,35.34-68.45-.52-281.08-.3-562.16-.3-843.24,0-22.36,0-44.73,0-70.13Zm95,1139.21c-51.93.9-89.42,39.13-89.5,91.26-.08,53.52,42.33,96.11,93.99,94.4,47.76-1.59,91.08-45.73,91.56-93.3.52-51.58-42.84-93.28-96.05-92.36Z"/>
  <path class="cls-1" d="m2273.54,5494.17h-190.21c0-23.41,0-45.24,0-67.08,0-215.96-.55-431.92.52-647.87.18-36.97-5.82-60.43-44.11-80.97-94.39-50.63-144.54-134.86-145.49-242.88-.97-110.8,51.34-195.12,146.93-247.88,34.71-19.16,43.4-39.77,42.81-75.71-1.84-112.24-.67-224.54-.67-340.22h190.22c0,101.49,2.38,202.04-.93,302.41-1.86,56.49,8.02,92.56,63.86,127.26,177.87,110.54,168.25,371.04-14.72,474.72-40.86,23.15-49.25,48.17-48.94,89.7,1.57,214.04.73,428.09.73,642.14,0,20.61,0,41.23,0,66.38Zm-1.67-1040.03c.47-51.5-42.17-94.5-93.46-94.25-52.07.25-92.5,42.22-91.66,95.16.81,51.04,38.72,89.08,89.84,90.15,53.35,1.11,94.8-38.5,95.29-91.06Z"/>
  <path class="cls-1" d="m5175.32,1515.97c172.25,47.67,278.44,142.71,311.28,304.07,30.49,149.82-17.24,277.06-136.58,371.78-119.64,94.97-255.19,110.38-392.98,46.36-137.53-63.9-222.83-176.34-215.31-329.39,4.46-90.74-29.75-127.28-102.12-158.72-68.05-29.56-132.65-67.46-197.28-104.32-29.75-16.97-53.28-16.56-84.06-.07-259.02,138.78-518.85,276.05-779.17,412.38-26.06,13.65-57.29,26.09-85.53,24.92-43.8-1.82-73.59-32.3-82.24-75.81-9.37-47.11,13.31-81.86,53.89-103.96,82.12-44.72,164.89-88.26,247.53-132.02,156.77-83.01,313.64-165.83,479.3-253.4-22.66-13.45-39.15-24.19-56.46-33.37-219.15-116.28-438.53-232.1-657.56-348.61-57.74-30.71-79.22-72.1-64.69-118.97,19.83-63.96,81.47-87.21,148.15-52.58,145.64,75.62,290.43,152.88,435.46,229.67,119.72,63.38,239.93,125.9,358.51,191.34,32.45,17.91,57.62,17.27,89.59-.53,98.2-54.69,198.16-106.23,296.17-158.32-14.07-258.44,91.47-417.54,304.6-462.81,173.36-36.82,359.37,66.3,424.03,236.89,41.62,109.79,33.86,217.74-22.6,320.63-56,102.06-146.51,161.27-271.95,194.84Zm-56.82,192.07c-107-1.02-189,79.21-189.53,185.45-.54,106.65,80.72,188.99,186.67,189.15,103.38.15,185.08-80.2,186.54-183.45,1.52-107.23-78.16-190.14-183.68-191.15Zm183.7-567.85c1.17-107.41-78.38-189.24-184.64-189.95-107.14-.72-188.36,79.47-188.55,186.15-.19,104.65,77.85,185.08,181.89,187.46,106.53,2.44,190.15-77.84,191.3-183.66Zm-696.61,376.08c82.85,43.82,156.06,82.55,217.62,115.11,77.41-43.24,145.55-81.3,203.21-113.5-52.88-33.56-114.23-73.09-176.44-111.24-8.2-5.03-23.07-7.45-30.94-3.43-68.91,35.23-136.93,72.21-213.45,113.06Z"/>
  <path class="cls-1" d="m1896.66,1138.12h943v943.7h-943v-943.7Zm192.74,752.7h558.5v-558.75h-558.5v558.75Z"/>
  <path class="cls-1" d="m1895.87,3218.22v-941.88h943.66v941.88h-943.66Zm751.01-190.01v-558.55h-556.41v558.55h556.41Z"/>
  <path class="cls-1" d="m3882,4547.55c0-208.39,3.33-416.85-1.39-625.13-2.4-105.91,68.57-162.95,176.03-107.85,419.31,215.01,841.98,423.45,1263.79,633.56,43.67,21.75,80.8,47.91,80.33,100.9-.47,52.92-38.33,78.05-81.89,99.75-423.22,210.9-845.88,422.94-1268.85,634.35-102.72,51.34-167.37,11.31-167.8-104.69-.78-210.3-.22-420.6-.23-630.9Zm194.02,508.61c340.65-170.47,673.06-336.82,1015.26-508.07-343.33-171.77-676.31-338.36-1015.26-507.94v1016.01Z"/>
  <path class="cls-1" d="m759.35,1704.14v-184.88h566.01v184.88h-566.01Z"/>
  <path class="cls-1" d="m1325.43,1898v185.14h-564.08v-185.14h564.08Z"/>
  <path class="cls-1" d="m1325.93,2276.33v184.21h-565.15v-184.21h565.15Z"/>
  <path class="cls-1" d="m1324.95,2842.55h-563.14v-186.36h563.14v186.36Z"/>
  <path class="cls-1" d="m759.25,3219.83v-185.27h566.15v185.27h-566.15Z"/>
  <path class="cls-1" d="m1325.82,1140.73v183.19h-563.76v-183.19h563.76Z"/>
  <path class="cls-1" d="m1704.06,567.2h-185.97v-185.48h185.97v185.48Z"/>
  <path class="cls-1" d="m1141.03,381.83h184.64v183.84h-184.64v-183.84Z"/>
  <path class="cls-1" d="m946.63,381.88v185.14h-185.9v-185.14h185.9Z"/>
</svg>