<?xml version="1.0" encoding="utf-8"?>
<!-- Generator: Adobe Illustrator 27.1.1, SVG Export Plug-In . SVG Version: 6.00 Build 0)  -->
<svg version="1.1" id="Layer_1" xmlns="http://www.w3.org/2000/svg" xmlns:xlink="http://www.w3.org/1999/xlink" x="0px" y="0px"
	 viewBox="0 0 5970.3 5970.3" style="enable-background:new 0 0 5970.3 5970.3;" xml:space="preserve">
<style type="text/css">
	.st0{fill:#60489D;}
</style>
<g>
	<path class="st0" d="M754.2,880.4c0-149-0.1-288.1,0-427.2c0.1-227,121.1-347.7,350.2-347.8c816.1-0.3,1632.2-0.1,2448.3-0.1
		c643,0,1286.1,0.3,1929.1-0.3c89.2-0.1,172.3,15.2,241.1,76.4c75.1,66.8,106.7,151.3,106.6,251.3c-0.9,582.8-0.4,1165.6-0.4,1748.4
		c0,680.9,0.1,1361.9,0,2042.8c0,220.5-121.6,343-341.6,344.4c-88.2,0.5-176.3,0.1-271.9,0.1c0,47.8,0,90.3,0,132.7
		c0,109.9,0.8,219.8-0.2,329.7c-1.6,178.4-128,309.2-307.6,311.5c-245.8,3.1-491.6,1-737.4,1.2c-23.2,0-46.4,0-74.7,0
		c-1.5,23.7-3.6,42.5-3.7,61.3c-0.3,111.9-0.1,223.7-0.2,335.6c-0.1,104.7-19.7,124.9-123.1,124.9c-450.3,0.1-900.7,0.1-1351,0.1
		c-9.8,0-19.7,0.3-29.5-0.1c-69.6-2.9-95.8-28.3-96.5-98c-1-117.7-0.3-235.5-0.3-353.2c0-21.1,0-42.2,0-70.5c-29.1,0-52.2,0-75.2,0
		c-647,0-1294,0.3-1940.9-0.2c-174.2-0.1-294.4-90.6-327.7-245.2c-5.7-26.5-6.6-54.5-6.6-81.8c-0.3-1269.6-0.4-2539.2-0.1-3808.9
		c0-195.2,128.1-324,324.4-326.7C559.2,879.3,653.3,880.4,754.2,880.4z M907.8,1240.2c0,22.9,0,38.3,0,53.7
		c0,981.1-0.1,1962.3,0.1,2943.4c0,120.9,58.1,177.7,183,177.8c470,0.5,940,0.2,1410,0c15.8,0,31.5-2.9,62.4-6
		c-23.7-11.7-31.8-16.6-40.5-19.8c-144.7-52.3-177.4-138.4-102.9-272.5c54.3-97.7,108.9-195.2,163.2-292.9
		c198.4-356.4,396.3-713,595.2-1069.1c58.9-105.5,165.1-105.6,225.1-1.6c24.5,42.5,47.9,85.6,71.7,128.4
		c231.6,416.4,463.5,832.8,694.8,1249.4c64.7,116.6,27.5,211.9-97.3,255c-13.5,4.7-26.2,11.6-39.3,17.5c0.7,3.9,1.5,7.9,2.2,11.8
		c18.8,0,37.5,0,56.3,0c464.1,0,928.2,0.2,1392.3-0.1c138-0.1,191.5-54.5,191.5-193.4c0.1-971.3,0-1942.7,0-2914
		c0-20.9,0-41.9,0-67.6c-32.1,0-57.3,0-82.5,0c-934.1,0-1868.1-0.4-2802.2,0.8c-67.7,0.1-120.6-19.9-166.9-69.9
		c-93.4-100.8-189.2-199.6-286.9-296.3c-18.2-18-49.7-31.4-75.3-31.8c-190.7-2.6-381.5-1.4-572.2-1.4c-38.7,0-77.3,0-120.4,0
		c0,79.4,0.1,151.6,0,223.9c-0.3,123.6-51.2,174.5-175.6,174.7C1234.5,1240.4,1075.4,1240.2,907.8,1240.2z M2773.5,4762.1
		c-4.1-38.3-5.3-69.2-10.9-99.2c-17.4-93.1-18.1-93-113.9-93c-515.1,0-1030.2,0.3-1545.3-0.1c-228-0.2-349-121.7-349-348.9
		c0-1037.8,0-2075.7,0-3113.5c0-22.6,0-45.3,0-73c-94.5,0-180.6-0.2-266.8,0c-138.2,0.4-193.1,55.1-193.1,192.4
		c-0.1,1257.6-0.1,2515.2,0,3772.7c0,137.8,53.5,190.8,193.3,190.8c644.9,0.1,1289.7,0.1,1934.6,0.1c21,0,42,0,56.7,0
		c7.5-8.2,10-9.6,10-11.1c1-82.3,0.7-164.7,2.8-247c2.7-106.4,64.7-167.9,169.4-170.1C2696.1,4761.5,2730.9,4762.1,2773.5,4762.1z
		 M5675.2,1087.2c0-233.6,3.6-457.3-3.2-680.7c-1.3-41.5-35.8-93.1-70.7-119.2c-31.8-23.8-84.9-26.4-128.6-26.4
		c-1231-1.3-2461.9-1-3692.9-1c-228.1,0-456.2-0.3-684.3,0.1c-132.5,0.3-187.4,54.8-187.6,185c-0.2,194.3-0.2,388.5,0.1,582.8
		c0,18.7,2,37.4,3.1,56.2c170.4,0,334.7,0,505.1,0c0-77.3-0.2-151.4,0.1-225.4c0.5-117.7,51.6-170,167.9-170.2
		c234-0.4,468,0.8,702-0.8c59.4-0.4,105.7,18.8,146.2,61.8c94.3,100,191.8,197.1,285.6,297.5c27.9,29.8,56.4,41.4,97.2,41.3
		c932.1-1.1,1864.1-0.8,2796.2-0.8C5630.5,1087.2,5649.7,1087.2,5675.2,1087.2z M4048.1,4229.9c-222.6-400.7-443.5-798.4-664.4-1196
		c-4.9,1.5-9.9,2.9-14.8,4.4c0,112.9-1.2,225.9,1.6,338.7c0.3,13.8,19.9,30.9,34.5,39.8c100,61,146.5,165.4,118.4,270.5
		c-27.8,103.8-123.1,178.1-229.4,178.9c-114.3,0.9-204.4-68.1-233.4-178.7c-28.3-108,17.3-209.3,116.2-271.4
		c18.4-11.5,34.6-40.4,35.9-62.3c4.5-72.3,1.7-145,1.7-217.6c0-33.3,0-66.6,0-100c-5.3-0.4-10.6-0.8-15.9-1.1
		c-220.4,396.3-440.7,792.7-661.8,1190.3c255.9,92,384.5,269.9,393.1,533.6c243.7,0,482.7,0,724.7,0
		C3664.1,4492.6,3793.6,4315.6,4048.1,4229.9z M3935,4918.2c-430.7,0-854.3,0-1283.7,0c0,265,0,526.2,0,788.2
		c429.7,0,855.2,0,1283.7,0C3935,5442.1,3935,5182.2,3935,4918.2z M3802.6,4761.4c37.3,0,58.4,0,79.6,0
		c159.4,0.3,209.6,51.2,209.6,212.6c0,70,0,140,0,213.4c285.5,0,564.1,1.9,842.6-1.4c64.9-0.8,123.2-62.1,124.9-129.1
		c4.2-160.4,1.4-320.9,1.4-488.4c-95.2,0-187.1,0-279,0c-292.8,0-585.7-0.4-878.5,1c-20.1,0.1-53.4,9.3-58,22.3
		C3826.9,4643.4,3817.5,4698.3,3802.6,4761.4z M3375.9,3623.1c-1.1-47.1-41.5-85.3-87.7-83c-46.8,2.3-82.3,41.7-81.1,90
		c1.3,51.2,35.8,84,86.5,82C3340.5,3710.3,3377,3670.8,3375.9,3623.1z"/>
	<path class="st0" d="M4610.6,3235.6c-92.1-422.4-487-857.5-987.9-969c-3.1,16.5-6.4,33-9.3,49.4c-13.1,73.8-65.8,124.5-141,126.3
		c-117.9,2.8-236,3-354,0.2c-90.3-2.1-136.2-57-150.3-169.3c-400.9,55.9-886.8,471.7-990.1,960.3c5.3,1.7,10.5,4.6,16,5
		c159.8,12.6,194.3,49.4,194.4,207.5c0,90.3,1.3,180.6-0.4,270.8c-2.2,110.6-58,164.6-169.4,165.4c-104.2,0.8-208.5,1.1-312.7-0.1
		c-103.6-1.2-160.8-58-161.8-160.4c-1-106-0.9-212-0.1-317.9c0.9-103.8,55-159,158.9-164.1c105.3-5.2,104.8-5.4,137.9-106.2
		c127.1-386.5,370.3-677.6,724.6-877.4c12.9-7.3,25.5-15.2,36.6-33.3c-16.5,0-33,0-49.5,0c-206.5,0-413,0.5-619.5-0.5
		c-32.5-0.2-52.1,6.4-68,39.7c-59.7,124.9-204.3,188.2-342.4,154.8c-135.2-32.7-231-157.4-229.3-298.6
		c1.7-141.2,97.1-258.9,232.8-287.4c146.6-30.8,290.3,32.5,340.6,165.2c24.7,65.3,58.8,74.8,119.4,74.3
		c302.8-2.8,605.7-1.3,908.6-1.3c21.5,0,42.9,0,74.5,0c0-38.1-0.8-72.4,0.1-106.7c2.8-103.5,57.4-159.8,161.5-161.8
		c106.2-2.1,212.4-2,318.6-0.1c106.6,1.9,161.3,59.2,163.1,166.2c0.5,31.1,0.1,62.1,0.1,97.6c21.2,1.8,38.1,4.5,54.9,4.5
		c322.5,0.3,645.1-0.6,967.6,1.2c39.9,0.2,56.5-11.2,69.9-49.6c47.3-135.6,181-214.7,320.1-195.3c155.2,21.6,261,131,270.7,280
		c9.4,143.4-77,266.4-215.5,306.7c-142.9,41.6-282.3-17.5-357.1-148.1c-10.3-17.9-35.2-38.8-53.6-39.1
		c-222.2-2.6-444.5-1.6-666.7-1.3c-5,0-10,2.8-22.2,6.5c15.8,10.5,25.9,18.1,36.8,24.2c377.1,210.5,626.2,522.8,745,937.1
		c10.8,37.8,26.2,52.3,64.2,48.7c25.3-2.4,51.2-1,76.6,0.8c90.2,6.7,145.2,62.4,146.6,151.9c1.7,111.8,1.6,223.7,0.1,335.6
		c-1.2,92.1-59.4,151.9-150.7,153.5c-114,2-228.1,1.9-342.2-0.1c-87-1.5-146.4-54.6-149.8-141.8c-4.7-119.5-4.7-239.5,0.2-358.9
		c3.5-84.8,59.3-133.1,145.6-140.5C4572.3,3238.8,4591.3,3237.2,4610.6,3235.6z M3459.6,2289.6c0-113.2,0-221.5,0-329.8
		c-117.6,0-227.9,0-333.6,0c0,114.4,0,223,0,329.8C3242.9,2289.6,3352.1,2289.6,3459.6,2289.6z M1696.3,3727.5
		c116.6,0,226.7,0,333.4,0c0-115.3,0-223.4,0-329.5c-117,0-225.7,0-333.4,0C1696.3,3511.2,1696.3,3619.7,1696.3,3727.5z
		 M4557.1,3728.6c117.2,0,226.2,0,335.3,0c0-114.4,0-222.7,0-331.8c-114.7,0-223.8,0-335.3,0
		C4557.1,3508.9,4557.1,3617.7,4557.1,3728.6z M1744.5,2121.3c-0.8-82.8-68.1-149.2-150.6-148.5c-82.5,0.6-148.2,68-147.3,151.1
		c0.9,83.5,67.1,147.6,151.2,146.5C1686.3,2269.1,1745.4,2209,1744.5,2121.3z M5136.5,2121.2c-0.6-84.3-66-149.4-149.2-148.5
		c-81.8,0.9-149.5,69.8-148.4,151.1c1.1,81.2,70,147.4,152.4,146.4C5080.8,2269.2,5137.1,2211.4,5136.5,2121.2z"/>
	<path class="st0" d="M4541.5,672.7c-0.2-120.8,96.8-218.2,216.6-217.6c119.3,0.6,217.6,100.4,216,219.3
		c-1.6,117.3-97.7,213.1-214.8,214.2C4638.7,889.7,4541.7,793.5,4541.5,672.7z M4827.8,690c0.4-9.1,0.8-18.2,1.1-27.3
		c-23.5-17.5-47-48.3-70.6-48.4c-20.8-0.1-53.1,30.8-60,54c-10.9,36.7,16.9,67.9,54.5,64.6C4778.8,730.7,4802.8,705.2,4827.8,690z"
		/>
	<path class="st0" d="M4448.9,670.6c0.6,120.5-95.9,217.9-216.1,218c-119.2,0.1-218.4-99.5-217.4-217.9
		c1-116.6,97.5-213.6,214.3-215.5C4348.7,453.2,4448.3,551,4448.9,670.6z M4245,601.2c-8.8,0.1-17.5,0.2-26.3,0.3
		c-16.1,24.6-45.6,49.8-44.4,73.7c1,21,33.4,52.6,56.7,57.7c36.3,7.9,67.3-21,61.6-58.6C4288.5,648.1,4261.6,625.4,4245,601.2z"/>
	<path class="st0" d="M5281.7,888.6c-118.8,0.4-218.6-99-218.2-217.3c0.4-118.2,101.5-217.7,219.7-216.1
		c116.7,1.5,213.6,98.4,214.8,214.8C5499.2,788.9,5401,888.2,5281.7,888.6z M5353.3,684.7c-0.2-8.7-0.3-17.4-0.5-26.2
		c-24.9-16.1-50.6-45.6-74.5-44.1c-21.3,1.3-53,34.2-57.8,57.7c-7.3,36,21.9,67.3,59.6,61.2C5306.5,729,5329.1,701.7,5353.3,684.7z"
		/>
</g>
</svg>
