<?xml version="1.0" encoding="UTF-8"?>
<svg id="Layer_1" data-name="Layer 1" xmlns="http://www.w3.org/2000/svg" viewBox="0 0 7099.12 5303.34">
  <defs>
    <style>
      .cls-1 {
        fill: #60489d;
      }
    </style>
  </defs>
  <path class="cls-1" d="m7099.12,4731.59c-82.27,166.98-174.73,194.12-339.33,99.17-353.71-204.05-707.3-408.28-1061.02-612.3-19.41-11.2-39.56-21.12-69.44-36.99,0,67.99,0,126.97,0,185.95,0,154.8.88,309.6-.3,464.39-1.05,137.21-102.91,240.51-239.36,245.16-20.77.71-41.58.2-62.38.2-1055.86,0-2111.72,0-3167.58,0-27.61,0-55.23,0-87.96,0-6.92,22.16-11.95,44.03-20.43,64.47-39.6,95.41-108.06,155.14-214.09,159.21-92.28,3.54-184.82,2.81-277.18.91-68.86-1.41-113.81-46.41-111.86-105.96,1.84-56.14,47.13-100.15,110.53-102.06,73.87-2.22,148.07-4.19,221.72.4,63.07,3.93,82.93-22.45,77.84-80.97-2.99-34.4-2.74-69.44-.04-103.88,4.36-55.62-16.12-78.99-74.73-78.8-464.39,1.49-928.79,1.37-1393.18.13-53.92-.14-72.03,19.1-72.21,73.27-.63,189.18-2.35,189.17,189.39,189.18,177.9,0,355.8-.34,533.71.16,83.01.23,134.39,42.99,132.43,108.19-1.91,63.59-48.64,100.77-131.16,101-224.11.62-448.23,1.26-672.33-.15-163.67-1.03-257.51-95.76-259.36-258.07-.63-55.44-.71-110.91.04-166.35,2.12-155.72,101.2-255.25,256.04-255.94,177.9-.79,355.8-.2,533.71-.21,24.97,0,49.93,0,79.25,0v-465.68c-95.26-26.47-193.77-43.88-284.37-80.74C304.59,3916.21,76.06,3623.52,5.08,3208.58c-27.08-158.33,55.38-251.89,217.99-254.02,66.52-.87,133.07-.14,208.71-.14,0-30.84,0-55.35,0-79.85,0-249.52-1.1-499.06.29-748.57,2.16-389.79,306.7-681.62,695.65-664.1,157.72,7.1,296.35,68.14,408.91,179.36,34.84,34.42,69.41,44.59,116,44.55,1229.14-1,2458.28-.55,3687.42-1.24,97.35-.05,187.78,18.02,242.08,104.8,26.63,42.57,43.9,98.08,45.13,148.23,5,203.19,2.08,406.58,2.28,609.9,0,8.58,1.91,17.16,3.89,33.86,38.23-21.34,71.98-39.64,105.23-58.83,343.67-198.36,686.25-398.65,1031.99-593.34,50.89-28.66,116.89-43.5,175.48-42.4,84.05,1.58,120.12,74.11,153.01,141.42v2703.4ZM1719.57,1898.89c52.48,355.63,8.75,704.44,30.9,1056.28,82.15,0,158.14-2.39,233.92.54,123.65,4.79,207.04,99.95,189.69,222.38-59.06,416.69-278.99,716.33-665.53,885.55-97.98,42.89-205.83,63.22-310.28,94.25v463.81c206.5,0,407.5-3.43,608.24,2.26,54.51,1.55,121.22,16.25,159.18,50.54,52.72,47.63,83.6,119.43,131.79,193.04-4.05,0,11.94,0,27.93,0,1069.56,0,2139.12.04,3208.68-.08,84.68,0,87.72-3.49,87.73-91.82.06-926.34.05-1852.67.02-2779.01q0-97.61-100.85-97.74c-1175.82-.03-2351.65-.02-3527.47-.02-25.03,0-50.07,0-73.95,0Zm5170.15,202.57c-151.23,86.83-291.81,169.45-434.49,248.28-41.87,23.13-55.64,50.87-55.33,98.13,2.07,316.32,1.22,632.65.81,948.98-.04,27.53-.88,55.62-6.3,82.45-10.6,52.43-48.13,79.85-98.61,80.78-50.73.94-88.46-26.28-101.33-77.64-6.06-24.17-6.9-50.11-6.94-75.25-.46-272.46-.2-544.91-.44-817.37-.02-24.01-2.21-48.02-3.84-81.07-181.94,105.15-355.66,204.24-527.26,306.88-15.79,9.45-25.45,41.44-25.55,63.02-1.58,334.79-.3,669.6-2.15,1004.39-.22,40.53,14.17,61.45,47.77,80.3,132.67,74.45,263.89,151.48,395.74,227.39,34.89,20.09,70.11,39.59,115.92,65.41,0-113.41-2.37-212.34.85-311.09,2.08-63.86,48.25-110.21,103.93-108.24,57.61,2.04,94.78,33.13,104.65,91.47,3.44,20.31,3.61,41.33,3.67,62.04.34,110.83,2.02,221.71-.77,332.47-1.06,42.19,12.22,66.71,49.58,87.47,130.95,72.76,259.85,149.19,389.79,223.78,14.72,8.45,31.07,14.05,50.31,22.6v-2555.17Zm-5359.96,592.11c0-204.72,5.46-405.25-1.43-605.35-7.96-230.89-193.63-407.78-426.59-418.86-221.43-10.54-428.44,158.54-450.4,384.6-15.12,155.7-7.69,313.61-9.87,470.55-.76,54.88-.12,109.77-.12,169.07h888.41Zm-1309.33,473.39c8.63,407.57,436.77,782.77,880.38,774.43,437.47-8.22,863.12-392.35,853.47-773.46h-216.83c-79.35,355.94-352.76,538.74-640.02,546.32-134.25,3.54-259.63-34.76-372.06-110.59-156.66-105.66-248.48-254.71-285.95-436.71h-218.98Zm429.46-250.57c-38.48,219.27,34.08,408.66,194.35,513.67,149.2,97.75,349.64,97.33,494.41-4.45,178.29-125.34,211.85-305,187.17-509.22h-875.93Z"/>
  <path class="cls-1" d="m3557.07,0c462.5,8.28,860.54,178.19,1188.31,512.89,42.54,43.43,67.24,89.13,32.18,147.7-39.41,65.85-116.84,67-180.91.57-136.35-141.37-293.52-252.2-473.52-330.85-541.84-236.77-1181.9-113.37-1597.52,308.22-78.75,79.88-136.37,92.64-187.98,41.63-53.24-52.61-43.16-107.73,38.69-188.72C2701.71,169.43,3093.94,6.99,3557.07,0Z"/>
  <path class="cls-1" d="m3591.43,823.18c188.76,6.56,387.32,85.1,549.49,249.05,56.85,57.48,61.94,117.16,15.9,163.84-44.86,45.49-104.9,40.06-164.14-14.85-271.67-251.76-611.78-251.01-887.06,1.97-58.75,53.99-119.83,58.07-164.22,10.97-44.61-47.33-37.78-104.77,19.49-163.83,150-154.71,371.43-247.41,630.54-247.15Z"/>
  <path class="cls-1" d="m3565.27,628.07c-291.26-6.31-539.38,97.07-747.04,300-8.25,8.06-15.83,16.83-24.38,24.54-51.45,46.39-111.4,48.26-153.88,5.06-43.43-44.17-42.4-101.31,6.5-153.48,166.7-177.82,367.73-303.83,605.92-352.05,140.16-28.38,287.18-25.92,431.32-30.32,68.42-2.09,112.58,48.75,110.14,107.31-2.51,60.25-48.42,98.8-117.91,98.93-36.89.07-73.77.01-110.66.01Z"/>
  <path class="cls-1" d="m3554.75,1236.98c110.62-1.15,209.86,41.12,291.66,123.53,48,48.36,49.95,110.92,7.9,153.9-39.78,40.66-98.28,40.65-149.16,0-118.34-94.59-190.36-94.02-313.29,2.47-50.01,39.25-110.34,37.16-148.88-5.17-38.53-42.31-36.4-102.84,8.55-148.88,81.11-83.06,179.98-126.14,303.22-125.86Z"/>
  <path class="cls-1" d="m4392.16,1003.1c-36.69-21.56-63.71-33.5-86.05-51.3-70.18-55.92-137.61-115.29-207.99-170.94-58.78-46.48-73.82-102.73-36.81-155.01,34.35-48.52,97.13-60.8,152.96-18.77,84.44,63.57,167.92,129.9,242.16,204.63,23.51,23.66,29.09,81.61,18.98,117.05-8.31,29.11-52.01,48.13-83.25,74.33Z"/>
  <path class="cls-1" d="m2618.4,3378.53c0-230.98-.94-461.97.28-692.94,1.05-199.02,130.22-272.15,304.11-173.03,406.68,231.83,813.23,463.88,1219.49,696.45,109.31,62.57,151.54,143.48,111.56,229.48-18.24,39.23-52.05,78.92-89.2,100.46-422.93,245.2-846.9,488.64-1272.83,728.6-139.23,78.44-269.5.02-271.93-161.45-3.64-242.47-.95-485.04-.95-727.56h-.54Zm213.39-676.15v1358.88c398.85-227.89,789.49-451.08,1189-679.35-399.95-228.58-790.63-451.86-1189-679.53Z"/>
  <path class="cls-1" d="m1086.28,1932.24c46,0,92.15-2.36,137.96.59,58.29,3.75,98.42,48.64,98.09,104.23-.34,56.97-38.66,99.89-99.19,101.86-89.6,2.92-179.41,2.76-269.03.17-59.93-1.73-101.23-44.99-103-99.72-1.81-55.96,42.94-103.53,104.1-106.85,43.57-2.36,87.38-.46,131.08-.29Z"/>
  <path class="cls-1" d="m1090.19,2318.24c43.69,0,87.48-1.8,131.06.43,61.4,3.14,100.67,42.59,100.58,100.06-.09,59.19-32.55,100.82-88.91,104.67-96.11,6.57-193.25,6.05-289.46.29-57.45-3.44-88.87-46.57-91.77-103.55-2.75-54.23,41.71-98.14,100.55-101.26,45.86-2.44,91.96-.49,137.95-.64Z"/>
</svg>